<svg xmlns="http://www.w3.org/2000/svg" fill="none" viewBox="0 0 24 24" id="Docker--Streamline-Svg-Logos" height="24" width="24">
  <desc>
    Docker Streamline Icon: https://streamlinehq.com
  </desc>
  <path fill="#2396ed" d="m6.703225 10.193175 0.17865 0.12935c0.3107 0.2506 0.48935 0.53355 0.528175 0.856925 0.334 -0.064675 0.7612 -0.016175 0.947625 0.113175l0.1709 0.1051 -0.031075 0.064675c-0.054375 0.12125 -0.069925 0.1536 -0.077675 0.16975 -0.302925 0.606325 -0.901025 0.6144 -1.18065 0.606325 -0.706825 1.77045 -2.213725 2.748625 -4.248775 2.748625 -0.939855 0 -1.6544575 -0.2991 -2.136035 -0.88925C0.2174365 13.32175 0.2174365 12.311225 0.2718075 11.987875l0.015535 -0.064675H5.903175c0.295175 0 0.520425 -0.08085 0.629175 -0.145525 -0.116525 -0.17785 -0.15535 -0.37995 -0.163125 -0.493125 -0.0233 -0.323375 0.054375 -0.662925 0.209725 -0.90545l0.124275 -0.185925Zm4.8659 0.375375c0.06265 0 0.1157 0.021 0.15915 0.063025 0.043425 0.042 0.06515 0.09505 0.06515 0.15915v1.99945c0 0.33325 -0.116775 0.6152 -0.350325 0.845925 -0.236425 0.23355 -0.518375 0.350325 -0.845925 0.350325 -0.3304 0 -0.612375 -0.116775 -0.845925 -0.350325 -0.233575 -0.233575 -0.35035 -0.515525 -0.35035 -0.845925s0.116775 -0.612375 0.35035 -0.845925c0.23355 -0.23355 0.515525 -0.350325 0.845925 -0.350325 0.2834 0 0.533325 0.087575 0.749775 0.262725v-1.065925c0 -0.0641 0.021025 -0.11715 0.063025 -0.15915 0.042025 -0.042025 0.09505 -0.063025 0.15915 -0.063025Zm1.67485 1.025375c0.32755 0 0.6095 0.116775 0.845925 0.350325 0.116775 0.116775 0.204 0.24565 0.261675 0.38665 0.057675 0.140975 0.087225 0.294075 0.08865 0.459275 0 0.33325 -0.116775 0.6152 -0.350325 0.845925 -0.236425 0.23355 -0.518375 0.350325 -0.845925 0.350325 -0.3304 0 -0.612375 -0.116775 -0.845925 -0.350325 -0.233575 -0.233575 -0.35035 -0.515525 -0.35035 -0.845925s0.116775 -0.612375 0.35035 -0.845925c0.23355 -0.23355 0.515525 -0.350325 0.845925 -0.350325Zm2.642525 0c0.300475 0 0.560375 0.096825 0.7797 0.2905 0.051275 0.045575 0.0769 0.101825 0.0769 0.168775 0 0.064075 -0.021 0.117475 -0.063025 0.1602 -0.042 0.042725 -0.09505 0.0641 -0.159125 0.0641 -0.054125 0 -0.10255 -0.0171 -0.145275 -0.051275 -0.072625 -0.06125 -0.148825 -0.107525 -0.228575 -0.13885 -0.07975 -0.031325 -0.1666 -0.047 -0.2606 -0.047 -0.103975 0 -0.201525 0.019575 -0.29265 0.05875 -0.09115 0.03915 -0.1709 0.09255 -0.23925 0.1602 -0.068375 0.06765 -0.122125 0.14705 -0.1613 0.2382 -0.03915 0.091125 -0.058725 0.188675 -0.058725 0.29265 0 0.10395 0.019575 0.2015 0.058725 0.29265 0.039175 0.09115 0.092925 0.170525 0.1613 0.238175 0.06835 0.06765 0.1481 0.12105 0.23925 0.160225 0.091125 0.03915 0.188675 0.05875 0.29265 0.05875 0.094 0 0.18085 -0.015325 0.2606 -0.045925 0.07975 -0.030625 0.155225 -0.07655 0.22645 -0.1378 0.039875 -0.0299 0.086875 -0.045575 0.140975 -0.047 0.0641 0 0.11715 0.021025 0.15915 0.063025 0.042025 0.042025 0.063025 0.09505 0.063025 0.15915 0 0.06265 -0.0235 0.117475 -0.0705 0.164475 -0.22075 0.193675 -0.48065 0.290525 -0.7797 0.290525 -0.3304 0 -0.612375 -0.116775 -0.845925 -0.350325 -0.23355 -0.233575 -0.350325 -0.515525 -0.350325 -0.845925s0.116775 -0.612375 0.350325 -0.845925c0.23355 -0.23355 0.515525 -0.350325 0.845925 -0.350325Zm1.33305 -1.025375c0.06125 0 0.113575 0.021725 0.157 0.06515 0.04345 0.04345 0.065175 0.0965 0.065175 0.15915v1.666225l1.277425 -0.830975c0.0356 -0.0228 0.075475 -0.034175 0.119625 -0.034175 0.031325 0 0.060525 0.005675 0.087575 0.017075 0.02705 0.0114 0.05055 0.027425 0.0705 0.048075 0.019925 0.02065 0.03595 0.0445 0.04805 0.07155 0.012125 0.02705 0.018175 0.05555 0.018175 0.08545 0 0.07975 -0.0285 0.13885 -0.08545 0.1773l-0.89505 0.58105 0.91855 1.0339c0.0413 0.045575 0.06195 0.09755 0.06195 0.15595 0 0.0299 -0.00605 0.058375 -0.018175 0.085425 -0.0121 0.027075 -0.028125 0.050925 -0.04805 0.071575 -0.01995 0.02065 -0.04345 0.036675 -0.0705 0.04805 -0.02705 0.0114 -0.05625 0.0171 -0.087575 0.0171 -0.059825 0 -0.10965 -0.019225 -0.149525 -0.057675l-0.986925 -1.108675 -0.2606 0.1709v0.77115c0 0.06125 -0.021725 0.113925 -0.065175 0.158075 -0.043425 0.04415 -0.09575 0.066225 -0.157 0.066225 -0.06265 0 -0.1157 -0.022075 -0.15915 -0.066225 -0.043425 -0.04415 -0.06515 -0.096825 -0.06515 -0.158075V10.79285c0 -0.06265 0.021725 -0.1157 0.06515 -0.15915 0.04345 -0.043425 0.0965 -0.06515 0.15915 -0.06515Zm3.28125 1.025375c0.32755 0 0.609525 0.116775 0.845925 0.350325 0.116775 0.11535 0.20435 0.243875 0.26275 0.385575 0.058375 0.1417 0.087575 0.29515 0.087575 0.46035 0 0.064075 -0.021725 0.117125 -0.06515 0.15915 -0.043425 0.042 -0.096475 0.063 -0.15915 0.063h-1.69185c0.024225 0.078325 0.059825 0.1499 0.106825 0.2147s0.102175 0.120325 0.16555 0.166625c0.063375 0.046275 0.13315 0.082225 0.20935 0.107875 0.076175 0.025625 0.155575 0.03845 0.238175 0.03845 0.094 0 0.18015 -0.01425 0.258475 -0.042725 0.078325 -0.0285 0.15095 -0.071225 0.2179 -0.128175 0.042725 -0.0356 0.09185 -0.054125 0.147375 -0.05555 0.0641 0 0.11715 0.021 0.15915 0.063025 0.042025 0.042 0.063025 0.09505 0.063025 0.15915 0 0.06265 -0.021375 0.11605 -0.0641 0.1602 -0.220725 0.193675 -0.48135 0.290525 -0.781825 0.290525 -0.3304 0 -0.612375 -0.116775 -0.845925 -0.350325 -0.23355 -0.233575 -0.350325 -0.515525 -0.350325 -0.845925s0.116775 -0.612375 0.350325 -0.845925c0.23355 -0.23355 0.515525 -0.350325 0.845925 -0.350325Zm2.63825 0c0.062675 0 0.12995 0.00425 0.201875 0.0128 0.071925 0.00855 0.138125 0.02385 0.19865 0.045925 0.060525 0.022075 0.110725 0.05235 0.1506 0.0908 0.039875 0.03845 0.059825 0.0883 0.059825 0.149525 0 0.031325 -0.00605 0.060525 -0.01815 0.087575 -0.0121 0.027075 -0.028125 0.050925 -0.048075 0.071575 -0.019925 0.02065 -0.043425 0.036675 -0.0705 0.04805 -0.02705 0.0114 -0.05625 0.0171 -0.087575 0.0171 -0.02705 0 -0.058375 -0.007825 -0.094 -0.0235 -0.0897 -0.0356 -0.18725 -0.0534 -0.29265 -0.0534 -0.10395 0 -0.2015 0.019575 -0.29265 0.05875 -0.09115 0.03915 -0.17055 0.09255 -0.238175 0.1602 -0.06765 0.06765 -0.12105 0.14705 -0.160225 0.2382 -0.03915 0.091125 -0.05875 0.188675 -0.05875 0.29265v0.9741c0 0.061225 -0.0217 0.11355 -0.06515 0.157 -0.043425 0.043425 -0.095775 0.06515 -0.157 0.06515 -0.062675 0 -0.1157 -0.021725 -0.15915 -0.06515 -0.043425 -0.04345 -0.06515 -0.095775 -0.06515 -0.157v-1.9482c0 -0.061225 0.021725 -0.113575 0.06515 -0.157 0.04345 -0.04345 0.096475 -0.06515 0.15915 -0.06515 0.061225 0 0.113575 0.0217 0.157 0.06515 0.04345 0.043425 0.06515 0.095775 0.06515 0.157v0.042725c0.106825 -0.08545 0.222875 -0.15095 0.3482 -0.196525 0.125325 -0.045575 0.2592 -0.06835 0.4016 -0.06835Zm-12.541875 0.44645c-0.1054 0 -0.20365 0.019925 -0.2948 0.0598 -0.09115 0.039875 -0.170175 0.09365 -0.237125 0.1613 -0.066925 0.06765 -0.119975 0.147025 -0.159125 0.238175 -0.039175 0.09115 -0.05875 0.187975 -0.05875 0.290525 0 0.102525 0.019575 0.199375 0.05875 0.290525 0.03915 0.091125 0.0922 0.170525 0.159125 0.238175 0.06695 0.06765 0.145975 0.1214 0.237125 0.161275 0.09115 0.039875 0.1894 0.059825 0.2948 0.059825 0.10395 0 0.2015 -0.01995 0.29265 -0.059825 0.09115 -0.039875 0.170525 -0.094 0.238175 -0.16235 0.06765 -0.06835 0.12105 -0.14775 0.160225 -0.238175 0.03915 -0.090425 0.058725 -0.186925 0.058725 -0.28945 0 -0.10255 -0.019575 -0.199025 -0.058725 -0.28945 -0.039175 -0.09045 -0.092575 -0.169825 -0.160225 -0.2382 -0.06765 -0.06835 -0.147025 -0.122475 -0.238175 -0.16235 -0.09115 -0.039875 -0.1887 -0.0598 -0.29265 -0.0598Zm2.6468 0c-0.1054 0 -0.20365 0.019925 -0.2948 0.0598 -0.09115 0.039875 -0.170175 0.09365 -0.237125 0.1613 -0.066925 0.06765 -0.119975 0.147025 -0.159125 0.238175 -0.039175 0.09115 -0.05875 0.187975 -0.05875 0.290525 0 0.102525 0.019575 0.199375 0.05875 0.290525 0.03915 0.091125 0.0922 0.170525 0.159125 0.238175 0.06695 0.06765 0.145975 0.1214 0.237125 0.161275 0.09115 0.039875 0.1894 0.059825 0.2948 0.059825 0.10395 0 0.2015 -0.01995 0.29265 -0.059825 0.09115 -0.039875 0.170525 -0.094 0.238175 -0.16235 0.06765 -0.06835 0.12105 -0.14775 0.160225 -0.238175 0.03915 -0.090425 0.058725 -0.186925 0.058725 -0.28945 0 -0.10255 -0.019575 -0.199025 -0.058725 -0.28945 -0.039175 -0.09045 -0.092575 -0.169825 -0.160225 -0.2382 -0.06765 -0.06835 -0.147025 -0.122475 -0.238175 -0.16235 -0.09115 -0.039875 -0.1887 -0.0598 -0.29265 -0.0598Zm7.256825 0c-0.081175 0 -0.160225 0.012825 -0.237125 0.03845s-0.147375 0.0616 -0.211475 0.107875c-0.064075 0.046275 -0.119625 0.101825 -0.166625 0.166625s-0.081875 0.13635 -0.104675 0.214675h1.4398c-0.024225 -0.078325 -0.060175 -0.149875 -0.1079 -0.214675 -0.0477 -0.0648 -0.103225 -0.12035 -0.1666 -0.166625s-0.133175 -0.08225 -0.20935 -0.107875c-0.0762 -0.025625 -0.154875 -0.03845 -0.23605 -0.03845ZM1.747615 10.9531v0.8084H0.8932v-0.8084h0.854415Zm1.00976 0v0.8084H1.902965v-0.8084h0.85441Zm1.009775 0v0.8084h-0.854425v-0.8084h0.854425Zm1.00975 0v0.8084H3.9225v-0.8084h0.8544Zm1.009775 0v0.8084H4.93225v-0.8084h0.854425Zm-1.009775 -0.970125v0.808425H3.9225v-0.808425h0.8544Zm-1.00975 0v0.808425h-0.854425v-0.808425h0.854425Zm-1.009775 0v0.808425H1.902965v-0.808425h0.85441Zm2.019525 -0.9701v0.808425H3.9225v-0.808425h0.8544Z" stroke-width="0.25"></path>
</svg>